# xmcd
#
# Track frame offsets: 
#        150
#        15297
#        33120
#        46465
#        62273
#        77222
#        102209
#        125759
#        143689
#        165656
#        180827
#        196962
#        199304
#        216879
#        229677
#
# Disc length: 3367 seconds
#
# Revision: 0
# Processed by: cddbd v1.5.2PL0 Copyright (c) Steve Scherf et al.
# Submitted via: ExactAudioCopyFreeDBPlugin 1.0
#
DISCID=be0d250f
DTITLE=Fantasma Goria - Fantasma Goria
DYEAR=2016
DGENRE=No, thanks.
TTITLE0=Boof Bäng Pow
TTITLE1=Bart ab
TTITLE2=Attitude
TTITLE3=Klartext
TTITLE4=Magnet
TTITLE5=Lass mich
TTITLE6=Das Biest
TTITLE7=Ha Ha
TTITLE8=Wenn 2 sich verstehen
TTITLE9=Normal
TTITLE10=Das Lied vom Bonig
TTITLE11=Freshness
TTITLE12=Papasita
TTITLE13=Interlude Interruptus
TTITLE14=Bitch Bizarre
EXTD=
EXTT0=
EXTT1=
EXTT2=
EXTT3=
EXTT4=
EXTT5=
EXTT6=
EXTT7=
EXTT8=
EXTT9=
EXTT10=
EXTT11=
EXTT12=
EXTT13=
EXTT14=
PLAYORDER=
